# xmcd
#
# Track frame offsets:
#	150
#	24742
#	37677
#	52044
#	79869
#	93790
#	111230
#	128380
#	142395
#	162689
#	181533
#	188607
#	249366
#	257088
#	278448
#	302962
#	321946
#	346625
#
# Disc length: 4794 seconds
#
# Revision: 1
# Processed by: cddbd v1.5PL3 Copyright (c) Steve Scherf et al.
# Submitted via: EasyCDDAExtractor 5.0.6
#
DISCID=ed12b812
DTITLE=Various Artist - Soul To Soul
DYEAR=1900
DGENRE=Blues
TTITLE0=Stivie Ray Vaughan - Say What!
TTITLE1=Lookin Out The Window
TTITLE2=Look At Little Sister
TTITLE3=Ain't Gone 'n' Give Up On Love
TTITLE4=Gone Home
TTITLE5=Change It
TTITLE6=You'll Be Mine
TTITLE7=Empty Arms
TTITLE8=Come On (Pt.Iii)
TTITLE9=Life Without You
TTITLE10=Srv Speaks
TTITLE11=Little Wing/Third Stone From The Sun
TTITLE12=Slip Slidin' Slim
TTITLE13=Couldn't Stand The Weather
TTITLE14=Soul To Soul
TTITLE15=Srv Bonus
TTITLE16=C.O.D.
TTITLE17=Letter To My Girlfriend
EXTD=
EXTT0=
EXTT1=
EXTT2=
EXTT3=
EXTT4=
EXTT5=
EXTT6=
EXTT7=
EXTT8=
EXTT9=
EXTT10=
EXTT11=
EXTT12=
EXTT13=
EXTT14=
EXTT15=
EXTT16=
EXTT17=
PLAYORDER=
